<mxfile host="app.diagrams.net" modified="2021-04-15T02:26:09.347Z" agent="5.0 (Windows NT 10.0; Win64; x64) AppleWebKit/537.36 (KHTML, like Gecko) Chrome/89.0.4389.82 Safari/537.36" etag="HdVRe1nJW20H02bVEZdr" version="14.6.0" type="github">
  <diagram id="O8f7BjnIkioO3fOGkFWy" name="Page-1">
    <mxGraphModel dx="2249" dy="787" grid="1" gridSize="10" guides="1" tooltips="1" connect="1" arrows="1" fold="1" page="1" pageScale="1" pageWidth="827" pageHeight="1169" math="0" shadow="0">
      <root>
        <mxCell id="0" />
        <mxCell id="1" parent="0" />
        <mxCell id="CRHrE48ElHrmX24azadF-7" value="" style="rounded=1;whiteSpace=wrap;html=1;fillColor=#f5f5f5;strokeColor=#666666;fontColor=#333333;" vertex="1" parent="1">
          <mxGeometry x="312" y="80" width="203.12" height="245" as="geometry" />
        </mxCell>
        <mxCell id="CRHrE48ElHrmX24azadF-1" value="&lt;font style=&quot;font-size: 16px&quot;&gt;Product&lt;br&gt;Page&lt;/font&gt;" style="rounded=1;whiteSpace=wrap;html=1;fillColor=#dae8fc;strokeColor=#6c8ebf;" vertex="1" parent="1">
          <mxGeometry x="-20" y="245" width="120" height="60" as="geometry" />
        </mxCell>
        <mxCell id="CRHrE48ElHrmX24azadF-2" value="&lt;font style=&quot;font-size: 16px&quot;&gt;Reviews-v1&lt;/font&gt;" style="rounded=1;whiteSpace=wrap;html=1;fillColor=#dae8fc;strokeColor=#6c8ebf;" vertex="1" parent="1">
          <mxGeometry x="356" y="105" width="120" height="60" as="geometry" />
        </mxCell>
        <mxCell id="CRHrE48ElHrmX24azadF-3" value="&lt;span style=&quot;font-size: 16px&quot;&gt;Reviews-v2&lt;/span&gt;" style="rounded=1;whiteSpace=wrap;html=1;fillColor=#dae8fc;strokeColor=#6c8ebf;" vertex="1" parent="1">
          <mxGeometry x="356" y="175" width="120" height="60" as="geometry" />
        </mxCell>
        <mxCell id="CRHrE48ElHrmX24azadF-4" value="&lt;span style=&quot;font-size: 16px&quot;&gt;Reviews-v3&lt;/span&gt;" style="rounded=1;whiteSpace=wrap;html=1;fillColor=#dae8fc;strokeColor=#6c8ebf;" vertex="1" parent="1">
          <mxGeometry x="356" y="245" width="120" height="60" as="geometry" />
        </mxCell>
        <mxCell id="CRHrE48ElHrmX24azadF-5" value="&lt;font style=&quot;font-size: 16px&quot;&gt;Details&lt;/font&gt;" style="rounded=1;whiteSpace=wrap;html=1;fillColor=#dae8fc;strokeColor=#6c8ebf;" vertex="1" parent="1">
          <mxGeometry x="280" y="400" width="120" height="60" as="geometry" />
        </mxCell>
        <mxCell id="CRHrE48ElHrmX24azadF-6" value="&lt;font style=&quot;font-size: 16px&quot;&gt;Ratings&lt;/font&gt;" style="rounded=1;whiteSpace=wrap;html=1;fillColor=#dae8fc;strokeColor=#6c8ebf;" vertex="1" parent="1">
          <mxGeometry x="670" y="220" width="120" height="60" as="geometry" />
        </mxCell>
        <mxCell id="CRHrE48ElHrmX24azadF-12" value="" style="endArrow=classic;html=1;exitX=1;exitY=0.5;exitDx=0;exitDy=0;entryX=0;entryY=0.5;entryDx=0;entryDy=0;" edge="1" parent="1" source="CRHrE48ElHrmX24azadF-1" target="CRHrE48ElHrmX24azadF-2">
          <mxGeometry width="50" height="50" relative="1" as="geometry">
            <mxPoint x="340" y="450" as="sourcePoint" />
            <mxPoint x="390" y="400" as="targetPoint" />
          </mxGeometry>
        </mxCell>
        <mxCell id="CRHrE48ElHrmX24azadF-13" value="" style="endArrow=classic;html=1;exitX=1;exitY=0.5;exitDx=0;exitDy=0;entryX=0;entryY=0.5;entryDx=0;entryDy=0;" edge="1" parent="1" source="CRHrE48ElHrmX24azadF-1" target="CRHrE48ElHrmX24azadF-3">
          <mxGeometry width="50" height="50" relative="1" as="geometry">
            <mxPoint x="340" y="450" as="sourcePoint" />
            <mxPoint x="390" y="400" as="targetPoint" />
          </mxGeometry>
        </mxCell>
        <mxCell id="CRHrE48ElHrmX24azadF-14" value="" style="endArrow=classic;html=1;exitX=1;exitY=0.5;exitDx=0;exitDy=0;entryX=0;entryY=0.5;entryDx=0;entryDy=0;" edge="1" parent="1" source="CRHrE48ElHrmX24azadF-1" target="CRHrE48ElHrmX24azadF-4">
          <mxGeometry width="50" height="50" relative="1" as="geometry">
            <mxPoint x="340" y="450" as="sourcePoint" />
            <mxPoint x="390" y="400" as="targetPoint" />
          </mxGeometry>
        </mxCell>
        <mxCell id="CRHrE48ElHrmX24azadF-15" value="" style="endArrow=classic;html=1;exitX=1;exitY=0.5;exitDx=0;exitDy=0;entryX=0;entryY=0.5;entryDx=0;entryDy=0;" edge="1" parent="1" source="CRHrE48ElHrmX24azadF-3" target="CRHrE48ElHrmX24azadF-6">
          <mxGeometry width="50" height="50" relative="1" as="geometry">
            <mxPoint x="340" y="450" as="sourcePoint" />
            <mxPoint x="390" y="400" as="targetPoint" />
          </mxGeometry>
        </mxCell>
        <mxCell id="CRHrE48ElHrmX24azadF-16" value="" style="endArrow=classic;html=1;exitX=1;exitY=0.5;exitDx=0;exitDy=0;entryX=0;entryY=0.5;entryDx=0;entryDy=0;" edge="1" parent="1" source="CRHrE48ElHrmX24azadF-4" target="CRHrE48ElHrmX24azadF-6">
          <mxGeometry width="50" height="50" relative="1" as="geometry">
            <mxPoint x="340" y="450" as="sourcePoint" />
            <mxPoint x="390" y="400" as="targetPoint" />
          </mxGeometry>
        </mxCell>
        <mxCell id="CRHrE48ElHrmX24azadF-17" value="" style="endArrow=classic;html=1;exitX=1;exitY=1;exitDx=0;exitDy=0;entryX=0;entryY=0.5;entryDx=0;entryDy=0;" edge="1" parent="1" source="CRHrE48ElHrmX24azadF-1" target="CRHrE48ElHrmX24azadF-5">
          <mxGeometry width="50" height="50" relative="1" as="geometry">
            <mxPoint x="340" y="450" as="sourcePoint" />
            <mxPoint x="220" y="480" as="targetPoint" />
          </mxGeometry>
        </mxCell>
      </root>
    </mxGraphModel>
  </diagram>
</mxfile>
